<svg width="23" height="27" viewBox="0 0 23 27" fill="none" xmlns="http://www.w3.org/2000/svg">
<path d="M0 0L7 0.46594L4.5 6.05722L0 0Z" fill="#6E7D60"/>
<path d="M3.85077 11.1826L8 0.931885" stroke="#6E7D60" stroke-width="1.33" stroke-linecap="round"/>
<path d="M9.86651 5.98769C9.86651 7.0826 10.8335 8.04879 12.1269 8.04879C13.4202 8.04879 14.3872 7.0826 14.3872 5.98769C14.3872 4.89279 13.4202 3.9266 12.1269 3.9266C10.8335 3.9266 9.86651 4.89279 9.86651 5.98769Z" stroke="#6E7D60" stroke-width="1.33"/>
<path d="M19.0746 11.0991C19.7986 11.607 20.4593 12.2048 20.9688 12.711C21.5593 13.2976 21.4575 14.2465 20.8001 14.757C20.2271 15.202 19.4159 15.1655 18.8851 14.6709L18.0461 13.889C17.7598 13.6222 17.4212 13.4178 17.0517 13.2887L15.6106 12.7851C15.2233 12.6497 14.8449 13.0083 14.9592 13.4022L17.8074 23.2226C18.1025 24.2402 17.5108 25.3031 16.4905 25.5883C15.4892 25.8682 14.4485 25.2939 14.1515 24.2976L12.9436 20.2454C12.8998 20.0985 12.7311 20.03 12.5973 20.1048L12.0957 20.3853C11.4085 20.7695 10.8837 21.3897 10.6186 22.131L10.1287 23.5004C9.81481 24.378 8.86497 24.8522 7.97488 24.5758C7.04289 24.2863 6.53139 23.2868 6.84168 22.3615L7.58187 20.1543C7.91679 19.1556 8.6307 18.3284 9.56974 17.8511L11.7567 16.7395C11.9713 16.6304 12.0779 16.3838 12.0102 16.1527L11.1675 13.2731C11.0942 13.0227 10.8189 12.8923 10.5787 12.994L8.26351 13.9747C7.46388 14.3134 6.55816 14.2974 5.77099 13.9306L4.3813 13.2831C3.79046 13.0078 3.49294 12.3391 3.68401 11.7159C3.90132 11.0071 4.66421 10.621 5.36406 10.8656L6.22689 11.1671C6.72987 11.3429 7.27974 11.3289 7.77313 11.1277L10.412 10.0518C12.0138 9.39881 13.7703 9.15452 15.4417 9.60004C16.6848 9.9314 18.1107 10.4229 19.0746 11.0991Z" stroke="#6E7D60" stroke-width="1.33"/>
</svg>
